<svg width="112" height="22" viewBox="0 0 112 22" fill="none" xmlns="http://www.w3.org/2000/svg">
<path d="M43.856 16L43.84 8.576L40.16 14.72H39.232L35.552 8.672V16H33.584V4.8H35.296L39.728 12.208L44.112 4.8H45.808L45.84 16H43.856ZM56.7503 11.776C56.7503 11.9147 56.7396 12.112 56.7183 12.368H50.0143C50.1316 12.9973 50.4356 13.4987 50.9263 13.872C51.4276 14.2347 52.0463 14.416 52.7823 14.416C53.7209 14.416 54.4943 14.1067 55.1023 13.488L56.1743 14.72C55.7903 15.1787 55.3049 15.5253 54.7183 15.76C54.1316 15.9947 53.4703 16.112 52.7343 16.112C51.7956 16.112 50.9689 15.9253 50.2543 15.552C49.5396 15.1787 48.9849 14.6613 48.5903 14C48.2063 13.328 48.0143 12.5707 48.0143 11.728C48.0143 10.896 48.2009 10.1493 48.5743 9.488C48.9583 8.816 49.4863 8.29333 50.1583 7.92C50.8303 7.54667 51.5876 7.36 52.4303 7.36C53.2623 7.36 54.0036 7.54667 54.6543 7.92C55.3156 8.28267 55.8276 8.8 56.1903 9.472C56.5636 10.1333 56.7503 10.9013 56.7503 11.776ZM52.4303 8.96C51.7903 8.96 51.2463 9.152 50.7983 9.536C50.3609 9.90933 50.0943 10.4107 49.9983 11.04H54.8463C54.7609 10.4213 54.4996 9.92 54.0623 9.536C53.6249 9.152 53.0809 8.96 52.4303 8.96ZM58.9378 7.456H60.9378V10.928H65.2418V7.456H67.2418V16H65.2418V12.624H60.9378V16H58.9378V7.456ZM77.7301 7.36C78.5835 7.36 79.3461 7.54667 80.0181 7.92C80.6901 8.28267 81.2181 8.8 81.6021 9.472C81.9861 10.1333 82.1781 10.8853 82.1781 11.728C82.1781 12.5707 81.9861 13.328 81.6021 14C81.2181 14.6613 80.6901 15.1787 80.0181 15.552C79.3461 15.9253 78.5835 16.112 77.7301 16.112C76.9835 16.112 76.3008 15.968 75.6821 15.68C75.0635 15.3813 74.5515 14.9653 74.1461 14.432C73.7408 13.888 73.4795 13.2693 73.3621 12.576H71.9221V16H69.9221V7.456H71.9221V10.768H73.3941C73.5221 10.096 73.7888 9.504 74.1941 8.992C74.5995 8.46933 75.1061 8.06933 75.7141 7.792C76.3221 7.504 76.9941 7.36 77.7301 7.36ZM77.7301 14.416C78.1995 14.416 78.6208 14.3093 78.9941 14.096C79.3675 13.872 79.6608 13.5573 79.8741 13.152C80.0875 12.736 80.1941 12.2613 80.1941 11.728C80.1941 10.9173 79.9595 10.272 79.4901 9.792C79.0315 9.30133 78.4448 9.056 77.7301 9.056C77.0155 9.056 76.4288 9.30133 75.9701 9.792C75.5115 10.272 75.2821 10.9173 75.2821 11.728C75.2821 12.5387 75.5115 13.1893 75.9701 13.68C76.4395 14.1707 77.0261 14.416 77.7301 14.416Z" fill="black"/>
<path d="M19 2V4L0 4L1.03815e-07 2L19 2Z" fill="#4BB1BC"/>
<path d="M19 2V4L0 4L1.03815e-07 2L19 2Z" fill="#4BB1BC"/>
<path d="M19 2V4L0 4L1.03815e-07 2L19 2Z" fill="black"/>
<path d="M19 10V12L0 12L1.03815e-07 10L19 10Z" fill="#4BB1BC"/>
<path d="M19 10V12L0 12L1.03815e-07 10L19 10Z" fill="#4BB1BC"/>
<path d="M19 10V12L0 12L1.03815e-07 10L19 10Z" fill="black"/>
<path d="M19 18V20L0 20L1.03815e-07 18L19 18Z" fill="#4BB1BC"/>
<path d="M19 18V20L0 20L1.03815e-07 18L19 18Z" fill="#4BB1BC"/>
<path d="M19 18V20L0 20L1.03815e-07 18L19 18Z" fill="black"/>
</svg>
